<?xml version="1.0" standalone="no"?>
<!DOCTYPE svg PUBLIC "-//W3C//DTD SVG 20010904//EN"
 "http://www.w3.org/TR/2001/REC-SVG-20010904/DTD/svg10.dtd">
<svg version="1.0" xmlns="http://www.w3.org/2000/svg"
 width="868.000000pt" height="868.000000pt" viewBox="0 0 868.000000 868.000000"
 preserveAspectRatio="xMidYMid meet">
<metadata>
Created by potrace 1.11, written by Peter Selinger 2001-2013
</metadata>
<g transform="translate(0.000000,868.000000) scale(0.100000,-0.100000)"
fill="#000000" stroke="none">
<path d="M8425 7741 c-66 -32 -174 -84 -240 -117 -66 -32 -122 -59 -125 -59
-3 -1 -50 -23 -105 -49 -55 -27 -140 -66 -190 -88 -49 -22 -108 -48 -130 -58
-135 -61 -235 -104 -345 -150 -69 -29 -138 -58 -155 -65 -70 -31 -301 -118
-312 -118 -7 0 -13 -4 -13 -9 0 -4 -8 -8 -18 -8 -10 0 -21 -3 -24 -6 -5 -5
-241 -89 -278 -99 -8 -2 -39 -13 -67 -24 -29 -10 -53 -17 -53 -15 0 3 -9 0
-21 -6 -11 -6 -28 -13 -37 -15 -9 -2 -55 -16 -102 -30 -134 -42 -552 -145
-561 -139 -5 3 -9 0 -9 -6 0 -6 -3 -9 -7 -7 -5 3 -37 -1 -73 -9 -36 -8 -78
-16 -95 -18 -16 -3 -41 -7 -55 -10 -64 -13 -229 -37 -294 -43 -97 -9 -502 -9
-601 1 -137 13 -214 22 -265 31 -14 2 -41 7 -60 9 -36 6 -76 13 -120 21 -14 3
-43 7 -65 11 -22 3 -49 8 -60 11 -11 3 -29 7 -40 9 -37 6 -289 64 -390 90 -55
14 -116 30 -135 34 -19 5 -52 13 -73 20 -20 6 -49 13 -65 15 -15 2 -47 7 -72
11 -68 11 -192 8 -215 -5 -5 -3 -18 -7 -28 -8 -38 -6 -97 -45 -130 -85 -67
-84 -114 -196 -154 -373 -2 -11 -5 -24 -7 -30 -2 -5 -6 -23 -11 -40 -4 -16
-21 -79 -37 -140 -16 -60 -31 -117 -33 -126 -6 -30 -89 -312 -110 -374 -64
-190 -145 -405 -157 -419 -7 -9 -3 119 6 160 2 12 7 43 10 70 4 27 9 65 12 84
2 19 7 55 10 80 2 25 7 56 9 70 10 62 27 178 31 215 2 25 13 102 19 135 3 14
7 44 10 68 3 24 7 53 10 65 7 33 15 78 21 117 2 19 7 43 10 53 3 9 3 17 0 17
-2 0 -36 -39 -75 -87 -100 -123 -104 -128 -189 -222 -206 -227 -431 -423 -647
-563 -97 -62 -258 -155 -287 -163 -12 -4 -25 -11 -28 -15 -7 -9 -222 -94 -280
-111 -55 -15 -52 -14 -70 -22 -21 -8 -147 -35 -192 -42 -21 -3 -53 -7 -70 -10
-97 -16 -320 -21 -351 -9 -9 3 -17 3 -17 0 0 -7 63 -34 96 -41 13 -3 34 -7 47
-10 59 -13 76 -16 127 -22 68 -8 259 -8 320 0 25 3 63 8 85 11 22 3 51 8 65
11 14 3 34 8 45 10 28 7 62 14 83 19 9 2 29 9 45 15 15 6 27 9 27 6 0 -2 15 1
33 6 45 13 208 50 277 63 19 3 46 8 59 11 14 2 45 7 70 10 25 3 62 8 81 10 41
6 148 8 171 3 37 -8 98 -61 144 -124 11 -15 25 -32 30 -39 6 -6 17 -22 25 -37
57 -98 132 -217 144 -227 8 -7 27 -16 43 -20 33 -9 54 9 117 99 22 30 43 57
48 58 4 2 8 10 8 18 0 8 4 14 8 14 4 0 15 12 24 28 31 51 188 224 274 303 44
39 182 140 239 174 92 55 261 125 337 139 13 2 41 7 63 11 22 4 49 9 60 11 27
6 189 17 247 18 27 1 48 3 48 6 0 12 385 1 590 -16 181 -15 645 -9 795 11 105
14 345 59 430 81 55 14 109 28 120 31 11 2 25 5 30 7 79 22 118 33 220 67 66
22 129 44 140 49 11 5 56 23 100 40 44 18 84 34 90 38 5 4 19 8 29 9 11 2 27
9 35 17 9 7 36 21 61 30 48 19 272 134 330 171 19 12 42 25 50 28 8 4 33 18
55 32 22 14 50 31 63 37 12 6 22 15 22 20 0 4 6 8 13 8 7 0 24 10 37 23 14 12
27 21 30 19 3 -1 12 4 20 11 9 7 38 28 65 47 55 37 227 167 262 196 12 11 32
28 45 38 37 31 150 129 174 151 12 11 52 47 90 80 37 33 78 69 90 80 12 11 57
52 100 90 43 39 111 102 153 140 107 101 597 584 591 584 -3 0 -59 -26 -125
-58z"/>
<path d="M3699 4972 c-225 -165 -210 -154 -339 -248 -58 -42 -107 -78 -109
-80 -2 -1 -5 -56 -6 -121 -2 -65 -4 -118 -5 -118 0 0 -3 -49 -5 -110 -2 -60
-6 -135 -9 -165 -3 -30 -8 -84 -11 -120 -11 -125 -28 -275 -40 -360 -3 -19 -8
-51 -11 -70 -2 -19 -6 -44 -8 -55 -2 -11 -6 -40 -10 -65 -4 -25 -9 -58 -13
-75 -4 -16 -8 -37 -9 -45 -2 -8 -5 -26 -7 -40 -3 -14 -8 -43 -12 -65 -3 -22
-10 -53 -15 -70 -5 -16 -11 -43 -13 -60 -3 -16 -17 -77 -32 -135 -14 -58 -28
-112 -30 -121 -2 -9 -13 -46 -24 -84 -12 -37 -23 -77 -25 -89 -6 -28 -72 -224
-103 -306 -14 -36 -26 -69 -27 -75 -5 -16 -16 -44 -57 -139 -22 -49 -39 -95
-39 -102 0 -8 -5 -14 -12 -14 -6 0 -9 -3 -6 -6 5 -4 -64 -158 -92 -204 -5 -8
-19 -35 -31 -60 -40 -82 -155 -276 -191 -325 -5 -5 -26 -35 -48 -65 -107 -148
-239 -271 -384 -357 -39 -24 -78 -47 -86 -53 -33 -22 -149 -90 -154 -90 -3 0
-40 -22 -83 -50 -43 -27 -75 -50 -71 -50 4 0 41 13 82 29 41 16 77 26 80 23 3
-3 6 -1 6 4 0 5 8 10 18 11 9 1 31 7 47 14 17 7 36 13 42 15 12 2 119 41 188
67 111 43 367 210 457 298 14 13 56 54 94 90 38 37 89 91 114 120 25 29 52 60
60 69 8 9 44 54 80 100 35 47 67 87 70 90 14 12 200 298 200 308 0 6 4 12 8
14 17 7 194 344 264 502 22 50 46 105 54 121 39 85 185 500 199 566 2 9 13 49
24 90 12 41 26 90 31 109 6 19 20 76 31 125 11 50 22 97 24 105 8 32 56 276
60 300 1 14 4 25 5 25 2 0 8 41 14 100 3 22 5 40 6 40 1 0 3 9 4 20 6 43 18
131 21 155 20 139 33 346 35 585 2 219 1 235 -7 235 -5 -1 -92 -63 -194 -138z"/>
</g>
</svg>
