<?xml version="1.0" encoding="utf-8"?>
<!-- Generator: Adobe Illustrator 16.0.0, SVG Export Plug-In . SVG Version: 6.00 Build 0)  -->
<!DOCTYPE svg PUBLIC "-//W3C//DTD SVG 1.1//EN" "http://www.w3.org/Graphics/SVG/1.1/DTD/svg11.dtd">
<svg version="1.1" xmlns="http://www.w3.org/2000/svg" xmlns:xlink="http://www.w3.org/1999/xlink" x="0px" y="0px" width="217px"
	 height="185.565px" viewBox="59.5 29.435 217 185.565" enable-background="new 59.5 29.435 217 185.565" xml:space="preserve">
<g id="Layer_3_copy">
	<g>
		
			<linearGradient id="SVGID_1_" gradientUnits="userSpaceOnUse" x1="339.1055" y1="-186.0908" x2="368.6749" y2="-186.0908" gradientTransform="matrix(1.1265 0 0 -1.1723 -257.4325 -62.1174)">
			<stop  offset="0" style="stop-color:#D8EE64"/>
			<stop  offset="1" style="stop-color:#20633C"/>
		</linearGradient>
		<path fill="url(#SVGID_1_)" d="M141.71,115.037c-0.454,24.084-4.613,48.555-15.474,70.041c-4.053,8.016-8.997,16.25-16.808,20.773
			c-1.038,0.674-3.596,1.457-3.85,1.625c10.207-2.039,18.083-9.928,24.403-18.041c14.255-18.447,21.878-41.58,24.987-64.814
			c0.901-6.627,1.193-13.335,1.068-20.025C151.262,108.076,146.486,111.556,141.71,115.037z"/>
		<g>
			<path fill="none" d="M151.203,88.195c4.1-0.207,12.397,0.021,12.397,0.021C159.476,87.928,155.323,87.903,151.203,88.195z"/>
			
				<radialGradient id="SVGID_2_" cx="351.7686" cy="-173.3379" r="82.6842" gradientTransform="matrix(0.4626 0.0784 0.1228 -0.7587 22.6113 -62.3815)" gradientUnits="userSpaceOnUse">
				<stop  offset="0" style="stop-color:#D8EE64"/>
				<stop  offset="1" style="stop-color:#20633C"/>
			</radialGradient>
			<path fill="url(#SVGID_2_)" d="M113.985,108.586c1.198,1.531,2.121,1.827,2.548,1.354c0.688-0.761,1.12-1.294,1.715-2.18
				c0.721-0.959,1.346-1.933,2.092-2.873c0.014-0.02,0.025-0.037,0.04-0.056c12.876-17.212,26.283-16.185,29.555-16.543
				c0.348-0.038,0.779-0.068,1.267-0.093c4.12-0.292,8.272-0.267,12.397,0.021c0.039,0,0.076,0.001,0.115,0.002
				c0.059,0.007,0.115,0.013,0.174,0.02c1.289,0.094,2.576,0.207,3.857,0.349c7.674,0.508,15.336,0.027,16.785-0.074
				c22.699-2.291,44.5-12.434,61.439-27.669c8.686-7.511,17.088-15.356,25.088-23.598c-1.562,0.771-3.125,1.542-4.688,2.312
				c-23.598,11.297-47.939,22.029-73.969,26.125c-16.223,2.721-32.664-0.651-48.351-4.754c-4.702-1.332-9.614-2.429-13.489,0.196
				c-3.438,3.438-3.775,7.743-5.021,11.987c-2.275,9.267-4.976,18.463-8.702,27.258c-1.376-0.556-0.688-3.606-0.688-3.606
				c3.204-23.903,2.236-16.218,3.5-24.3c-10.213,13.781-24.837,24.744-41.637,28.879c-4.255,0.959-8.781,1.872-13.082,0.652
				c6.922,3.036,14.694,1.463,21.854,0.25c6.107-0.978,11.995-3.375,18.209-3.562c1.594,0.15,2.911,1.063,3.784,2.316"/>
		</g>
	</g>
</g>
<g id="Layer_3_copy_2">
	<g>
		<linearGradient id="SVGID_3_" gradientUnits="userSpaceOnUse" x1="146.4385" y1="186.5654" x2="112.7456" y2="128.2077">
			<stop  offset="0" style="stop-color:#D8EE64"/>
			<stop  offset="1" style="stop-color:#20633C"/>
		</linearGradient>
		<path fill="none" stroke="url(#SVGID_3_)" stroke-width="2" stroke-miterlimit="10" d="M141.71,115.037
			c-0.454,24.084-4.613,48.555-15.474,70.041c-4.053,8.016-8.997,16.25-16.808,20.773c-1.038,0.674-1.761,1.021-2.015,1.189
			c8.781-2.733,16.249-9.492,22.568-17.605c14.255-18.447,21.878-41.58,24.987-64.814c0.901-6.627,1.193-13.335,1.068-20.025
			C151.262,108.076,146.486,111.556,141.71,115.037z"/>
		<g>
			<g>
				<linearGradient id="SVGID_4_" gradientUnits="userSpaceOnUse" x1="166.5811" y1="53.4746" x2="174.8424" y2="100.327">
					<stop  offset="0" style="stop-color:#D8EE64"/>
					<stop  offset="1" style="stop-color:#20633C"/>
				</linearGradient>
				<path fill="url(#SVGID_4_)" d="M114.559,108.365c0.157,0.286,0.276,0.497,0.444,0.706c0.163,0.205,0.346,0.383,0.533,0.496
					c0.187,0.118,0.373,0.148,0.491,0.115c0.057-0.011,0.111-0.051,0.132-0.071l0.297-0.348l0.594-0.696l0.515-0.713l1.069-1.486
					c0.723-0.996,1.453-1.988,2.203-2.942c0.753-0.96,1.554-1.922,2.378-2.832c3.285-3.665,7.143-6.885,11.559-9.153
					c2.198-1.143,4.539-2.017,6.945-2.617c2.404-0.605,4.9-0.869,7.338-0.972c1.181-0.09,2.444-0.183,3.655-0.235
					c1.215-0.08,2.445-0.101,3.678-0.113c1.233-0.039,2.456,0.025,3.685,0.039c1.215,0.034,2.477,0.128,3.649,0.177l0.023,0.001
					l0.025,0.002l3.841,0.351c1.245,0.067,2.568,0.157,3.838,0.182c2.557,0.09,5.135,0.062,7.702,0.003
					c1.284-0.035,2.569-0.084,3.852-0.154c0.63-0.042,1.307-0.054,1.895-0.14l1.92-0.236l1.919-0.236l1.895-0.315
					c1.263-0.206,2.526-0.409,3.779-0.693c2.519-0.495,5.008-1.127,7.482-1.808c1.229-0.37,2.465-0.717,3.688-1.107l3.645-1.242
					l3.595-1.381c1.193-0.472,2.361-1.006,3.543-1.506c2.341-1.053,4.662-2.154,6.921-3.375c1.146-0.582,2.263-1.214,3.37-1.863
					c1.117-0.633,2.227-1.279,3.305-1.977c2.189-1.34,4.309-2.793,6.397-4.285c1.027-0.77,2.075-1.513,3.087-2.303l3.006-2.407
					c1.939-1.672,3.888-3.363,5.818-5.078c1.93-1.709,3.884-3.397,5.763-5.155c1.884-1.754,3.816-3.456,5.661-5.254
					c1.852-1.791,3.729-3.553,5.56-5.366l5.448-5.479l0.579,0.796c-2.735,1.357-5.494,2.715-8.262,4.014l-8.326,3.883
					c-2.784,1.274-5.576,2.534-8.389,3.75c-2.806,1.23-5.631,2.417-8.472,3.565c-5.68,2.303-11.427,4.448-17.255,6.357l-4.387,1.386
					l-4.417,1.29l-4.448,1.178l-4.478,1.065c-2.997,0.66-6.006,1.268-9.035,1.764c-1.511,0.28-3.036,0.476-4.55,0.689
					c-1.538,0.154-3.077,0.329-4.613,0.392c-3.075,0.179-6.158,0.175-9.229-0.002c-3.072-0.159-6.134-0.464-9.175-0.9
					c-6.088-0.843-12.094-2.146-18.042-3.622l-4.46-1.139c-1.472-0.409-2.932-0.798-4.414-1.047
					c-2.925-0.528-6.066-0.435-8.486,1.224l0.073-0.061c-1.182,1.188-2.094,2.617-2.728,4.187c-0.646,1.566-1.052,3.242-1.47,4.934
					l-1.304,5.065c-0.424,1.688-0.882,3.38-1.342,5.064c-0.472,1.682-0.948,3.362-1.465,5.032c-0.492,1.676-1.056,3.332-1.597,4.993
					l-0.864,2.476c-0.278,0.829-0.607,1.64-0.909,2.46c-0.596,1.644-1.285,3.253-1.938,4.876l-0.182,0.452l-0.466-0.183
					c-0.462-0.181-0.776-0.598-0.923-0.972c-0.157-0.382-0.209-0.754-0.236-1.115c-0.024-0.361-0.012-0.711,0.018-1.057
					c0.032-0.35,0.078-0.678,0.153-1.036l-0.008,0.043l1.643-12.167l0.863-6.085l0.996-6.058l0.888,0.386l0,0
					c-1.658,2.144-3.395,4.229-5.212,6.242c-1.818,2.013-3.714,3.958-5.7,5.812c-4,3.673-8.33,7.004-13.001,9.798
					c-1.165,0.702-2.353,1.368-3.565,1.987c-0.602,0.318-1.21,0.622-1.828,0.908c-0.611,0.299-1.231,0.581-1.858,0.847
					c-1.245,0.55-2.515,1.048-3.801,1.497c-1.283,0.458-2.587,0.858-3.904,1.208c-2.633,0.704-5.327,1.196-8.044,1.443
					c-1.359,0.123-2.723,0.179-4.087,0.188c-0.682-0.01-1.365-0.016-2.044-0.076c-0.678-0.092-1.351-0.277-1.999-0.603l0,0l0,0
					c1.605,0.552,3.275,0.87,4.948,1.077c0.836,0.109,1.674,0.192,2.514,0.253c0.841,0.042,1.682,0.081,2.523,0.063
					c0.841,0.018,1.681-0.065,2.52-0.097c0.835-0.1,1.675-0.143,2.503-0.288c0.83-0.127,1.66-0.25,2.477-0.444l1.229-0.265
					l1.213-0.332c1.619-0.441,3.26-0.911,4.912-1.332c1.65-0.42,3.31-0.803,4.977-1.16l2.512-0.487l2.53-0.408l2.55-0.308
					l2.572-0.174l0.024-0.002l0.045,0.004c0.283,0.024,0.605,0.04,0.947,0.097c0.341,0.058,0.682,0.162,1,0.301
					c0.317,0.143,0.607,0.316,0.883,0.506c0.263,0.197,0.53,0.395,0.761,0.616c0.476,0.434,0.904,0.899,1.301,1.379
					c0.407,0.477,0.761,0.983,1.122,1.485c1.404,2.029,2.593,4.161,3.743,6.308l-0.88,0.476c-1.175-2.105-2.392-4.194-3.783-6.13
					c-0.352-0.479-0.711-0.952-1.086-1.403c-0.371-0.455-0.765-0.886-1.182-1.271c-0.205-0.199-0.429-0.363-0.647-0.531
					c-0.225-0.156-0.453-0.294-0.689-0.402c-0.237-0.104-0.478-0.181-0.735-0.226c-0.256-0.045-0.54-0.063-0.86-0.091l0.069,0.002
					l-2.503,0.155l-2.502,0.287l-2.495,0.387l-2.485,0.466c-1.651,0.342-3.299,0.712-4.938,1.119l-2.452,0.636
					c-0.82,0.226-1.629,0.449-2.472,0.634l-1.252,0.292l-1.266,0.225c-0.841,0.166-1.694,0.26-2.544,0.359
					c-0.848,0.116-1.708,0.129-2.559,0.198c-0.856,0.001-1.711,0.054-2.565,0.004c-0.855-0.014-1.707-0.086-2.557-0.16
					c-0.848-0.101-1.697-0.195-2.534-0.366c-1.671-0.336-3.326-0.781-4.887-1.453l0,0l0,0l2.02,0.119l2.022,0.025
					c1.348-0.023,2.694-0.092,4.035-0.227c2.681-0.272,5.333-0.785,7.926-1.506c1.296-0.358,2.58-0.767,3.842-1.232
					c1.265-0.455,2.514-0.959,3.737-1.516c0.617-0.269,1.226-0.553,1.826-0.855c0.607-0.289,1.206-0.595,1.797-0.916
					c1.19-0.624,2.357-1.293,3.501-1.999c4.586-2.808,8.834-6.146,12.754-9.819c1.96-1.838,3.838-3.762,5.637-5.757
					c1.799-1.995,3.519-4.061,5.161-6.186l0,0l1.197-1.497l-0.31,1.882l-0.996,6.056l-0.86,6.069l-1.642,12.165l-0.002,0.018
					l-0.005,0.026c-0.06,0.282-0.106,0.602-0.133,0.904c-0.027,0.306-0.036,0.611-0.017,0.903c0.02,0.291,0.068,0.574,0.162,0.798
					c0.096,0.228,0.22,0.364,0.375,0.428l-0.648,0.268c0.648-1.61,1.331-3.207,1.923-4.839c0.3-0.815,0.626-1.62,0.902-2.443
					l0.858-2.46c0.538-1.652,1.098-3.296,1.587-4.965c0.515-1.66,0.988-3.333,1.458-5.006c0.458-1.678,0.912-3.351,1.336-5.042
					l1.303-5.06c0.417-1.688,0.832-3.414,1.516-5.075c0.671-1.663,1.663-3.228,2.945-4.513l0.035-0.035l0.038-0.025
					c1.347-0.893,2.919-1.449,4.507-1.601c1.59-0.183,3.173-0.037,4.708,0.22c1.537,0.258,3.039,0.659,4.513,1.069l4.434,1.132
					c5.928,1.471,11.901,2.766,17.939,3.602c3.017,0.434,6.05,0.735,9.089,0.893c3.038,0.176,6.085,0.179,9.119,0.002
					c1.521-0.062,3.024-0.234,4.53-0.383c1.516-0.214,3.027-0.407,4.525-0.685c3.01-0.493,6.001-1.097,8.979-1.753l4.452-1.06
					l4.425-1.171l4.396-1.284l4.365-1.38c5.803-1.901,11.529-4.037,17.19-6.333c2.833-1.144,5.65-2.328,8.449-3.555
					c2.805-1.212,5.591-2.47,8.371-3.742l8.312-3.877c2.771-1.301,5.502-2.646,8.249-4.008l2.708-1.343l-2.128,2.139l-5.463,5.494
					c-1.834,1.817-3.718,3.584-5.574,5.379c-1.849,1.803-3.79,3.512-5.68,5.272c-1.889,1.767-3.839,3.451-5.771,5.161
					c-1.926,1.71-3.872,3.401-5.84,5.096l-3.033,2.429c-1.021,0.797-2.077,1.548-3.113,2.324c-2.108,1.505-4.246,2.971-6.455,4.323
					c-1.088,0.705-2.208,1.355-3.334,1.995c-1.118,0.655-2.245,1.293-3.4,1.88c-2.279,1.231-4.622,2.342-6.983,3.405
					c-1.192,0.505-2.371,1.043-3.576,1.52l-3.627,1.394l-3.679,1.253c-1.234,0.393-2.482,0.744-3.723,1.118
					c-2.498,0.687-5.011,1.326-7.555,1.825c-1.263,0.287-2.546,0.493-3.828,0.702l-1.922,0.319l-1.92,0.237l-1.92,0.236
					c-0.689,0.095-1.307,0.101-1.962,0.146c-1.293,0.07-2.586,0.121-3.879,0.155c-2.589,0.06-5.171,0.088-7.77-0.003
					c-1.31-0.027-2.561-0.112-3.89-0.185l-3.864-0.354l0.048,0.003c-1.265-0.052-2.438-0.143-3.663-0.177
					c-1.213-0.013-2.43-0.077-3.638-0.038c-1.208,0.012-2.418,0.031-3.64,0.112c-1.228,0.053-2.399,0.14-3.651,0.235
					c-2.437,0.104-4.819,0.358-7.156,0.944c-2.329,0.581-4.594,1.426-6.727,2.536c-4.284,2.2-8.05,5.337-11.272,8.932
					c-0.815,0.9-1.577,1.815-2.33,2.775c-0.759,0.965-1.476,1.939-2.186,2.918l-1.069,1.486l-0.559,0.77l-0.595,0.696l-0.297,0.348
					c-0.183,0.208-0.403,0.329-0.641,0.393c-0.479,0.123-0.93-0.023-1.257-0.224c-0.656-0.399-1.055-1.045-1.34-1.575
					L114.559,108.365z"/>
			</g>
		</g>
	</g>
</g>
<g id="Layer_4" display="none">
	<g id="hjsGgl.tif" display="inline">
		
			<image overflow="visible" width="282" height="148" id="Layer_0" xlink:href="C8D2F00EB361D325.png"  transform="matrix(1 0 0 1 -94.2656 -11.4487)">
		</image>
	</g>
</g>
</svg>
